<svg width="16" height="16" viewBox="0 0 16 16" fill="none" xmlns="http://www.w3.org/2000/svg">
<path d="M11.75 6.5H13.25C14.75 6.5 15.5 5.75 15.5 4.25V2.75C15.5 1.25 14.75 0.5 13.25 0.5H11.75C10.25 0.5 9.5 1.25 9.5 2.75V4.25C9.5 5.75 10.25 6.5 11.75 6.5Z" stroke="#FF5F38" stroke-miterlimit="10" stroke-linecap="round" stroke-linejoin="round"/>
<path d="M2.75 15.5H4.25C5.75 15.5 6.5 14.75 6.5 13.25V11.75C6.5 10.25 5.75 9.5 4.25 9.5H2.75C1.25 9.5 0.5 10.25 0.5 11.75V13.25C0.5 14.75 1.25 15.5 2.75 15.5Z" stroke="#FF5F38" stroke-miterlimit="10" stroke-linecap="round" stroke-linejoin="round"/>
<path d="M3.5 6.5C5.15685 6.5 6.5 5.15685 6.5 3.5C6.5 1.84315 5.15685 0.5 3.5 0.5C1.84315 0.5 0.5 1.84315 0.5 3.5C0.5 5.15685 1.84315 6.5 3.5 6.5Z" stroke="#FF5F38" stroke-miterlimit="10" stroke-linecap="round" stroke-linejoin="round"/>
<path d="M12.5 15.5C14.1569 15.5 15.5 14.1569 15.5 12.5C15.5 10.8431 14.1569 9.5 12.5 9.5C10.8431 9.5 9.5 10.8431 9.5 12.5C9.5 14.1569 10.8431 15.5 12.5 15.5Z" stroke="#FF5F38" stroke-miterlimit="10" stroke-linecap="round" stroke-linejoin="round"/>
</svg>
