<svg width="24" height="24" viewBox="0 0 24 24" fill="none" xmlns="http://www.w3.org/2000/svg">
<path opacity="0.4" d="M15.0002 22.75C14.7302 22.75 14.4802 22.6 14.3502 22.37C14.2202 22.14 14.2202 21.85 14.3602 21.62L15.4102 19.87C15.6202 19.51 16.0802 19.4 16.4402 19.61C16.8002 19.82 16.9102 20.28 16.7002 20.64L16.4302 21.09C19.1902 20.44 21.2602 17.96 21.2602 15C21.2602 14.59 21.6002 14.25 22.0102 14.25C22.4202 14.25 22.7602 14.59 22.7602 15C22.7502 19.27 19.2702 22.75 15.0002 22.75Z" fill="#9B9B9B"/>
<path opacity="0.4" d="M2 9.75C1.59 9.75 1.25 9.41 1.25 9C1.25 4.73 4.73 1.25 9 1.25C9.27 1.25 9.51999 1.4 9.64999 1.63C9.77999 1.86 9.78 2.15 9.64 2.38L8.59 4.13C8.38 4.49001 7.92 4.60001 7.56 4.39001C7.2 4.18001 7.09 3.71999 7.3 3.35999L7.57001 2.90997C4.81001 3.55997 2.74001 6.04 2.74001 9C2.75001 9.41 2.41 9.75 2 9.75Z" fill="#9B9B9B"/>
<path d="M10.6709 13.8499L7.53093 12.1599C7.20093 11.9799 6.80093 11.9799 6.47093 12.1599L3.33093 13.8499C3.10093 13.9699 2.96094 14.2199 2.96094 14.4899C2.96094 14.7599 3.10093 15.0099 3.33093 15.1299L6.47093 16.8199C6.64093 16.9099 6.82093 16.9499 7.00093 16.9499C7.18093 16.9499 7.36093 16.9099 7.53093 16.8199L10.6709 15.1299C10.9009 15.0099 11.0409 14.7599 11.0409 14.4899C11.0409 14.2199 10.8909 13.9799 10.6709 13.8499Z" fill="#9B9B9B"/>
<path d="M5.95023 17.4099L3.03023 15.9499C2.81023 15.8399 2.55023 15.8499 2.33023 15.9799C2.12023 16.1099 1.99023 16.3399 1.99023 16.5899V19.3499C1.99023 19.8299 2.25022 20.2599 2.68022 20.4699L5.60023 21.9299C5.70023 21.9799 5.81023 22.0099 5.92023 22.0099C6.05023 22.0099 6.18023 21.9699 6.30023 21.8999C6.51023 21.7699 6.64023 21.5399 6.64023 21.2899V18.5299C6.65023 18.0499 6.38023 17.6199 5.95023 17.4099Z" fill="#9B9B9B"/>
<path d="M11.6596 15.9799C11.4496 15.8499 11.1896 15.8399 10.9596 15.9499L8.0396 17.4099C7.6096 17.6199 7.34961 18.0499 7.34961 18.5299V21.2899C7.34961 21.5399 7.47961 21.7699 7.68961 21.8999C7.80961 21.9699 7.93961 22.0099 8.06961 22.0099C8.17961 22.0099 8.2896 21.9799 8.3896 21.9299L11.3096 20.4699C11.7396 20.2599 11.9996 19.8299 11.9996 19.3499V16.5899C11.9996 16.3399 11.8696 16.1099 11.6596 15.9799Z" fill="#9B9B9B"/>
<path d="M20.6709 3.83001L17.5309 2.14C17.2009 1.96 16.8009 1.96 16.4709 2.14L13.3309 3.83001C13.1009 3.95001 12.9609 4.19996 12.9609 4.46996C12.9609 4.73996 13.1009 4.98998 13.3309 5.10998L16.4709 6.79998C16.6409 6.88998 16.8209 6.92998 17.0009 6.92998C17.1809 6.92998 17.3609 6.88998 17.5309 6.79998L20.6709 5.10998C20.9009 4.98998 21.0409 4.73996 21.0409 4.46996C21.0409 4.18996 20.8909 3.95001 20.6709 3.83001Z" fill="#9B9B9B"/>
<path d="M15.9502 7.37999L13.0302 5.91997C12.8102 5.80997 12.5502 5.82 12.3302 5.95C12.1202 6.08 11.9902 6.30999 11.9902 6.55999V9.32C11.9902 9.8 12.2502 10.23 12.6802 10.44L15.6002 11.9C15.7002 11.95 15.8102 11.98 15.9202 11.98C16.0502 11.98 16.1802 11.94 16.3002 11.87C16.5102 11.74 16.6402 11.51 16.6402 11.26V8.49999C16.6502 8.01999 16.3802 7.58999 15.9502 7.37999Z" fill="#9B9B9B"/>
<path d="M21.6596 5.95C21.4496 5.82 21.1896 5.80997 20.9596 5.91997L18.0396 7.37999C17.6096 7.58999 17.3496 8.01999 17.3496 8.49999V11.26C17.3496 11.51 17.4796 11.74 17.6896 11.87C17.8096 11.94 17.9396 11.98 18.0696 11.98C18.1796 11.98 18.2896 11.95 18.3896 11.9L21.3096 10.44C21.7396 10.23 21.9996 9.8 21.9996 9.32V6.55999C21.9996 6.30999 21.8696 6.08 21.6596 5.95Z" fill="#9B9B9B"/>
</svg>
