<svg width="300" height="300" viewBox="0 0 300 300" fill="none" xmlns="http://www.w3.org/2000/svg">
<rect width="300" height="300" rx="75" fill="white"/>
<path d="M46.1279 179.778V137.331H34V111.054H49.1598L55.2238 87H78.4688V111.054H100.501V137.331H78.4688V172.704C78.4688 176.477 78.9405 179.104 79.8838 180.587C80.827 181.934 82.9831 182.608 86.352 182.608C88.508 182.608 90.7988 182.541 93.2244 182.406C95.65 182.136 98.0756 181.867 100.501 181.597L101.108 182.002V208.279C94.6393 210.165 86.0825 211.108 75.4369 211.108C64.7913 211.108 57.2451 208.683 52.7982 203.832C48.3513 198.981 46.1279 190.963 46.1279 179.778Z" fill="#292D32"/>
<path d="M176.849 182.608C187.36 185.573 199.016 187.055 211.818 187.055C218.017 187.055 222.666 186.853 225.765 186.448C228.865 186.044 230.953 185.37 232.031 184.427C233.109 183.484 233.648 182.204 233.648 180.587C233.648 178.296 232.772 176.881 231.021 176.342C229.404 175.803 226.102 175.062 221.116 174.118L205.148 171.087C194.906 169.065 187.495 165.898 182.913 161.586C178.466 157.139 176.243 150.537 176.243 141.778C176.243 129.919 179.747 121.834 186.754 117.522C193.896 113.21 205.215 111.054 220.712 111.054C230.01 111.054 238.163 111.593 245.17 112.671C252.312 113.614 258.241 114.827 262.957 116.309L262.553 140.767L261.947 141.373C251.032 137.87 239.106 136.118 226.169 136.118C219.836 136.118 215.389 136.589 212.829 137.533C210.403 138.341 209.19 140.026 209.19 142.586C209.19 143.934 209.527 145.012 210.201 145.82C211.01 146.629 212.761 147.437 215.457 148.246C218.152 148.919 222.396 149.795 228.191 150.873L242.946 153.703C251.166 155.455 257.23 158.352 261.138 162.395C265.046 166.437 267 172.838 267 181.597C267 189.278 265.585 195.41 262.755 199.991C259.925 204.438 255.142 207.605 248.404 209.491C241.801 211.378 232.638 212.321 220.914 212.321C212.02 212.321 203.8 211.917 196.254 211.108C188.842 210.165 182.172 209.087 176.243 207.874V183.012L176.849 182.608Z" fill="#292D32"/>
<path d="M158.621 180.586C158.891 183.551 159.093 186.111 159.227 188.267C159.362 190.288 159.43 192.445 159.43 194.735C159.43 196.891 159.362 199.115 159.227 201.406C159.093 203.562 158.891 206.055 158.621 208.885C155.252 209.424 151.883 209.895 148.514 210.299C145.146 210.704 141.777 210.906 138.408 210.906C135.174 210.906 131.94 210.704 128.706 210.299C125.472 209.895 122.17 209.424 118.801 208.885C118.397 206.189 118.127 203.764 117.993 201.608C117.858 199.317 117.791 197.094 117.791 194.937C117.791 192.916 117.858 190.76 117.993 188.469C118.127 186.178 118.397 183.551 118.801 180.586C125.539 179.373 132.209 178.767 138.812 178.767C145.415 178.767 152.018 179.373 158.621 180.586Z" fill="#FF5F38"/>
</svg>
