<svg width="874" height="593" viewBox="0 0 874 593" fill="none" xmlns="http://www.w3.org/2000/svg">
<g opacity="0.5">
<g opacity="0.5">
<g opacity="0.5">
<path opacity="0.5" d="M878 24.0421H0V24.6278H878V24.0421Z" fill="#292D32"/>
</g>
<g opacity="0.5">
<path opacity="0.5" d="M878 47.7035H0V48.2892H878V47.7035Z" fill="#292D32"/>
</g>
<g opacity="0.5">
<path opacity="0.5" d="M878 71.365H0V71.9507H878V71.365Z" fill="#292D32"/>
</g>
<g opacity="0.5">
<path opacity="0.5" d="M878 95.0264H0V95.612H878V95.0264Z" fill="#292D32"/>
</g>
<g opacity="0.5">
<path opacity="0.5" d="M878 118.688H0V119.274H878V118.688Z" fill="#292D32"/>
</g>
<g opacity="0.5">
<path opacity="0.5" d="M878 142.379H0V142.964H878V142.379Z" fill="#292D32"/>
</g>
<g opacity="0.5">
<path opacity="0.5" d="M878 166.04H0V166.626H878V166.04Z" fill="#292D32"/>
</g>
<g opacity="0.5">
<path opacity="0.5" d="M878 189.701H0V190.287H878V189.701Z" fill="#292D32"/>
</g>
<g opacity="0.5">
<path opacity="0.5" d="M878 213.363H0V213.948H878V213.363Z" fill="#292D32"/>
</g>
<g opacity="0.5">
<path opacity="0.5" d="M878 237.024H0V237.61H878V237.024Z" fill="#292D32"/>
</g>
<g opacity="0.5">
<path opacity="0.5" d="M878 260.715H0V261.301H878V260.715Z" fill="#292D32"/>
</g>
<g opacity="0.5">
<path opacity="0.5" d="M878 284.376H0V284.962H878V284.376Z" fill="#292D32"/>
</g>
<g opacity="0.5">
<path opacity="0.5" d="M878 308.038H0V308.624H878V308.038Z" fill="#292D32"/>
</g>
<g opacity="0.5">
<path opacity="0.5" d="M878 331.699H0V332.285H878V331.699Z" fill="#292D32"/>
</g>
<g opacity="0.5">
<path opacity="0.5" d="M878 355.39H0V355.976H878V355.39Z" fill="#292D32"/>
</g>
<g opacity="0.5">
<path opacity="0.5" d="M878 379.051H0V379.637H878V379.051Z" fill="#292D32"/>
</g>
<g opacity="0.5">
<path opacity="0.5" d="M878 402.713H0V403.298H878V402.713Z" fill="#292D32"/>
</g>
<g opacity="0.5">
<path opacity="0.5" d="M878 426.374H0V426.96H878V426.374Z" fill="#292D32"/>
</g>
<g opacity="0.5">
<path opacity="0.5" d="M878 450.036H0V450.622H878V450.036Z" fill="#292D32"/>
</g>
<g opacity="0.5">
<path opacity="0.5" d="M878 473.727H0V474.312H878V473.727Z" fill="#292D32"/>
</g>
<g opacity="0.5">
<path opacity="0.5" d="M878 497.388H0V497.974H878V497.388Z" fill="#292D32"/>
</g>
<g opacity="0.5">
<path opacity="0.5" d="M878 521.049H0V521.635H878V521.049Z" fill="#292D32"/>
</g>
<g opacity="0.5">
<path opacity="0.5" d="M878 544.711H0V545.297H878V544.711Z" fill="#292D32"/>
</g>
<g opacity="0.5">
<path opacity="0.5" d="M878 568.372H0V568.958H878V568.372Z" fill="#292D32"/>
</g>
</g>
<g opacity="0.5">
<g opacity="0.5">
<path opacity="0.5" d="M27.1596 0H26.5742V593H27.1596V0Z" fill="#292D32"/>
</g>
<g opacity="0.5">
<path opacity="0.5" d="M55.5775 0H54.9922V593H55.5775V0Z" fill="#292D32"/>
</g>
<g opacity="0.5">
<path opacity="0.5" d="M84.0248 0H83.4395V593H84.0248V0Z" fill="#292D32"/>
</g>
<g opacity="0.5">
<path opacity="0.5" d="M112.443 0H111.857V593H112.443V0Z" fill="#292D32"/>
</g>
<g opacity="0.5">
<path opacity="0.5" d="M140.861 0H140.275V593H140.861V0Z" fill="#292D32"/>
</g>
<g opacity="0.5">
<path opacity="0.5" d="M169.279 0H168.693V593H169.279V0Z" fill="#292D32"/>
</g>
<g opacity="0.5">
<path opacity="0.5" d="M197.697 0H197.111V593H197.697V0Z" fill="#292D32"/>
</g>
<g opacity="0.5">
<path opacity="0.5" d="M226.115 0H225.529V593H226.115V0Z" fill="#292D32"/>
</g>
<g opacity="0.5">
<path opacity="0.5" d="M254.533 0H253.947V593H254.533V0Z" fill="#292D32"/>
</g>
<g opacity="0.5">
<path opacity="0.5" d="M282.98 0H282.395V593H282.98V0Z" fill="#292D32"/>
</g>
<g opacity="0.5">
<path opacity="0.5" d="M311.398 0H310.812V593H311.398V0Z" fill="#292D32"/>
</g>
<g opacity="0.5">
<path opacity="0.5" d="M339.816 0H339.23V593H339.816V0Z" fill="#292D32"/>
</g>
<g opacity="0.5">
<path opacity="0.5" d="M368.234 0H367.648V593H368.234V0Z" fill="#292D32"/>
</g>
<g opacity="0.5">
<path opacity="0.5" d="M396.652 0H396.066V593H396.652V0Z" fill="#292D32"/>
</g>
<g opacity="0.5">
<path opacity="0.5" d="M425.07 0H424.484V593H425.07V0Z" fill="#292D32"/>
</g>
<g opacity="0.5">
<path opacity="0.5" d="M453.517 0H452.932V593H453.517V0Z" fill="#292D32"/>
</g>
<g opacity="0.5">
<path opacity="0.5" d="M481.935 0H481.35V593H481.935V0Z" fill="#292D32"/>
</g>
<g opacity="0.5">
<path opacity="0.5" d="M510.353 0H509.768V593H510.353V0Z" fill="#292D32"/>
</g>
<g opacity="0.5">
<path opacity="0.5" d="M538.771 0H538.186V593H538.771V0Z" fill="#292D32"/>
</g>
<g opacity="0.5">
<path opacity="0.5" d="M567.189 0H566.604V593H567.189V0Z" fill="#292D32"/>
</g>
<g opacity="0.5">
<path opacity="0.5" d="M595.607 0H595.021V593H595.607V0Z" fill="#292D32"/>
</g>
<g opacity="0.5">
<path opacity="0.5" d="M624.054 0H623.469V593H624.054V0Z" fill="#292D32"/>
</g>
<g opacity="0.5">
<path opacity="0.5" d="M652.472 0H651.887V593H652.472V0Z" fill="#292D32"/>
</g>
<g opacity="0.5">
<path opacity="0.5" d="M680.89 0H680.305V593H680.89V0Z" fill="#292D32"/>
</g>
<g opacity="0.5">
<path opacity="0.5" d="M709.308 0H708.723V593H709.308V0Z" fill="#292D32"/>
</g>
<g opacity="0.5">
<path opacity="0.5" d="M737.724 0H737.139V593H737.724V0Z" fill="#292D32"/>
</g>
<g opacity="0.5">
<path opacity="0.5" d="M766.142 0H765.557V593H766.142V0Z" fill="#292D32"/>
</g>
<g opacity="0.5">
<path opacity="0.5" d="M794.56 0H793.975V593H794.56V0Z" fill="#292D32"/>
</g>
<g opacity="0.5">
<path opacity="0.5" d="M823.007 0H822.422V593H823.007V0Z" fill="#292D32"/>
</g>
<g opacity="0.5">
<path opacity="0.5" d="M851.425 0H850.84V593H851.425V0Z" fill="#292D32"/>
</g>
</g>
</g>
</svg>
