<svg width="16" height="16" viewBox="0 0 16 16" fill="none" xmlns="http://www.w3.org/2000/svg">
<path d="M4 6.66665V5.33331C4 3.12665 4.66667 1.33331 8 1.33331C11.3333 1.33331 12 3.12665 12 5.33331V6.66665" stroke="#9B9B9B" stroke-linecap="round" stroke-linejoin="round"/>
<path d="M8.00065 12.3333C8.92113 12.3333 9.66732 11.5871 9.66732 10.6667C9.66732 9.74619 8.92113 9 8.00065 9C7.08018 9 6.33398 9.74619 6.33398 10.6667C6.33398 11.5871 7.08018 12.3333 8.00065 12.3333Z" stroke="#9B9B9B" stroke-linecap="round" stroke-linejoin="round"/>
<path d="M11.334 14.6667H4.66732C2.00065 14.6667 1.33398 14 1.33398 11.3334V10C1.33398 7.33335 2.00065 6.66669 4.66732 6.66669H11.334C14.0007 6.66669 14.6673 7.33335 14.6673 10V11.3334C14.6673 14 14.0007 14.6667 11.334 14.6667Z" stroke="#9B9B9B" stroke-linecap="round" stroke-linejoin="round"/>
</svg>
