<svg width="141" height="28" viewBox="0 0 141 28" fill="none" xmlns="http://www.w3.org/2000/svg">
<path d="M1.8 17.35V11.05H0V7.14998H2.25L3.15 3.57998H6.6V7.14998H9.87V11.05H6.6V16.3C6.6 16.86 6.67 17.25 6.81 17.47C6.95 17.67 7.27 17.77 7.77 17.77C8.09 17.77 8.43 17.76 8.79 17.74C9.15 17.7 9.51 17.66 9.87 17.62L9.96 17.68V21.58C9 21.86 7.73 22 6.15 22C4.57 22 3.45 21.64 2.79 20.92C2.13 20.2 1.8 19.01 1.8 17.35Z" fill="#292D32"/>
<path d="M17.216 21.73H12.416V7.11998H16.316L16.706 10.12H16.796C16.976 8.99998 17.406 8.19998 18.086 7.71998C18.766 7.21998 19.776 6.96998 21.116 6.96998C21.656 6.96998 22.146 6.99998 22.586 7.05998C23.026 7.09998 23.396 7.13998 23.696 7.17998V11.86L23.636 11.92C23.316 11.84 22.946 11.77 22.526 11.71C22.126 11.65 21.666 11.62 21.146 11.62C20.406 11.62 19.736 11.74 19.136 11.98C18.556 12.22 18.096 12.69 17.756 13.39C17.436 14.07 17.276 15.09 17.276 16.45L17.216 21.73Z" fill="#292D32"/>
<path d="M30.3347 1.68998C30.3947 2.40998 30.4247 3.00998 30.4247 3.48998C30.4247 3.76998 30.4147 4.05998 30.3947 4.35998C30.3947 4.63998 30.3747 4.95998 30.3347 5.31998C29.9147 5.39998 29.5047 5.45998 29.1047 5.49998C28.7047 5.53998 28.3047 5.55998 27.9047 5.55998C27.5247 5.55998 27.1347 5.53998 26.7347 5.49998C26.3547 5.45998 25.9647 5.39998 25.5647 5.31998C25.5247 4.97998 25.4947 4.66998 25.4747 4.38998C25.4547 4.08998 25.4447 3.79998 25.4447 3.51998C25.4447 3.25998 25.4547 2.97998 25.4747 2.67998C25.4947 2.37998 25.5247 2.04998 25.5647 1.68998C25.9647 1.58998 26.3647 1.52998 26.7647 1.50998C27.1847 1.46998 27.5947 1.44998 27.9947 1.44998C28.3747 1.44998 28.7547 1.46998 29.1347 1.50998C29.5347 1.52998 29.9347 1.58998 30.3347 1.68998ZM30.3347 21.73H25.5347V7.11998H30.3347V21.73Z" fill="#292D32"/>
<path d="M32.4562 11.02V7.11998H34.5863V6.36998C34.5863 4.38998 35.0463 2.96998 35.9663 2.10998C36.8863 1.22998 38.2563 0.789978 40.0763 0.789978C40.7163 0.789978 41.3063 0.849979 41.8463 0.969978C42.3863 1.06998 42.8563 1.18998 43.2563 1.32998V4.68998L43.1663 4.74998C42.8063 4.70998 42.4463 4.67998 42.0863 4.65998C41.7263 4.61998 41.3862 4.59998 41.0662 4.59998C40.3862 4.59998 39.9063 4.72998 39.6263 4.98998C39.3663 5.22998 39.2363 5.60998 39.2363 6.12998V7.11998H43.2563V11.02H39.2363V21.73H34.5863V11.02H32.4562Z" fill="#292D32"/>
<path d="M47.348 27.25L49.658 21.76L43.868 7.17998V7.11998H49.238C49.798 8.69998 50.318 10.29 50.798 11.89C51.298 13.49 51.698 15.13 51.998 16.81H52.058C52.358 15.15 52.738 13.52 53.198 11.92C53.678 10.32 54.218 8.71998 54.818 7.11998H59.978V7.20998L52.268 27.31H47.348V27.25Z" fill="#292D32"/>
<path d="M70.1154 17.59C71.6754 18.03 73.4054 18.25 75.3054 18.25C76.2254 18.25 76.9154 18.22 77.3754 18.16C77.8354 18.1 78.1454 18 78.3054 17.86C78.4654 17.72 78.5454 17.53 78.5454 17.29C78.5454 16.95 78.4154 16.74 78.1554 16.66C77.9154 16.58 77.4254 16.47 76.6854 16.33L74.3154 15.88C72.7954 15.58 71.6954 15.11 71.0154 14.47C70.3554 13.81 70.0254 12.83 70.0254 11.53C70.0254 9.76998 70.5454 8.56998 71.5854 7.92998C72.6454 7.28998 74.3254 6.96998 76.6254 6.96998C78.0054 6.96998 79.2154 7.04998 80.2554 7.20998C81.3154 7.34998 82.1954 7.52998 82.8954 7.74998L82.8354 11.38L82.7454 11.47C81.1254 10.95 79.3554 10.69 77.4354 10.69C76.4954 10.69 75.8354 10.76 75.4554 10.9C75.0954 11.02 74.9154 11.27 74.9154 11.65C74.9154 11.85 74.9654 12.01 75.0654 12.13C75.1854 12.25 75.4454 12.37 75.8454 12.49C76.2454 12.59 76.8754 12.72 77.7354 12.88L79.9254 13.3C81.1454 13.56 82.0454 13.99 82.6254 14.59C83.2054 15.19 83.4954 16.14 83.4954 17.44C83.4954 18.58 83.2854 19.49 82.8654 20.17C82.4454 20.83 81.7354 21.3 80.7354 21.58C79.7554 21.86 78.3954 22 76.6554 22C75.3354 22 74.1154 21.94 72.9954 21.82C71.8954 21.68 70.9054 21.52 70.0254 21.34V17.65L70.1154 17.59Z" fill="#292D32"/>
<path d="M86.3391 17.35V11.05H84.5391V7.14998H86.7891L87.6891 3.57998H91.1391V7.14998H94.4091V11.05H91.1391V16.3C91.1391 16.86 91.2091 17.25 91.3491 17.47C91.4891 17.67 91.8091 17.77 92.3091 17.77C92.6291 17.77 92.9691 17.76 93.3291 17.74C93.6891 17.7 94.0491 17.66 94.4091 17.62L94.4991 17.68V21.58C93.5391 21.86 92.2691 22 90.6891 22C89.1091 22 87.9891 21.64 87.3291 20.92C86.6691 20.2 86.3391 19.01 86.3391 17.35Z" fill="#292D32"/>
<path d="M96.1512 14.53C96.1512 11.85 96.7212 9.91998 97.8612 8.73998C99.0012 7.55998 100.931 6.96998 103.651 6.96998C105.471 6.96998 106.931 7.22998 108.031 7.74998C109.131 8.26998 109.921 9.08998 110.401 10.21C110.901 11.31 111.151 12.75 111.151 14.53C111.151 16.29 110.901 17.72 110.401 18.82C109.921 19.92 109.131 20.73 108.031 21.25C106.931 21.75 105.471 22 103.651 22C100.931 22 99.0012 21.42 97.8612 20.26C96.7212 19.08 96.1512 17.17 96.1512 14.53ZM103.651 17.89C104.811 17.89 105.591 17.64 105.991 17.14C106.411 16.62 106.621 15.72 106.621 14.44C106.621 13.22 106.411 12.35 105.991 11.83C105.591 11.29 104.811 11.02 103.651 11.02C102.531 11.02 101.751 11.29 101.311 11.83C100.891 12.35 100.681 13.22 100.681 14.44C100.681 15.72 100.891 16.62 101.311 17.14C101.751 17.64 102.531 17.89 103.651 17.89Z" fill="#292D32"/>
<path d="M118.495 21.73H113.695V7.11998H117.595L117.985 10.12H118.075C118.255 8.99998 118.685 8.19998 119.365 7.71998C120.045 7.21998 121.055 6.96998 122.395 6.96998C122.935 6.96998 123.425 6.99998 123.865 7.05998C124.305 7.09998 124.675 7.13998 124.975 7.17998V11.86L124.915 11.92C124.595 11.84 124.225 11.77 123.805 11.71C123.405 11.65 122.945 11.62 122.425 11.62C121.685 11.62 121.015 11.74 120.415 11.98C119.835 12.22 119.375 12.69 119.035 13.39C118.715 14.07 118.555 15.09 118.555 16.45L118.495 21.73Z" fill="#292D32"/>
<path d="M139.954 21.25C139.394 21.45 138.614 21.63 137.614 21.79C136.634 21.93 135.464 22 134.104 22C132.384 22 130.914 21.78 129.694 21.34C128.494 20.88 127.584 20.11 126.964 19.03C126.344 17.93 126.034 16.41 126.034 14.47C126.034 11.83 126.634 9.91998 127.834 8.73998C129.054 7.55998 130.934 6.96998 133.474 6.96998C135.294 6.96998 136.724 7.22998 137.764 7.74998C138.824 8.26998 139.574 9.00998 140.014 9.96998C140.474 10.91 140.704 12.03 140.704 13.33C140.704 13.71 140.684 14.12 140.644 14.56C140.624 15 140.574 15.43 140.494 15.85L140.374 15.97H130.504C130.644 16.85 131.054 17.43 131.734 17.71C132.434 17.99 133.564 18.13 135.124 18.13C136.164 18.13 137.024 18.11 137.704 18.07C138.404 18.01 139.114 17.93 139.834 17.83L139.954 17.92V21.25ZM136.534 12.82C136.534 12.34 136.454 11.93 136.294 11.59C136.154 11.23 135.864 10.96 135.424 10.78C134.984 10.58 134.334 10.48 133.474 10.48C132.214 10.48 131.384 10.7 130.984 11.14C130.604 11.56 130.414 12.12 130.414 12.82H136.534Z" fill="#292D32"/>
<path d="M66.54 17.47C66.58 17.91 66.61 18.29 66.63 18.61C66.65 18.91 66.66 19.23 66.66 19.57C66.66 19.89 66.65 20.22 66.63 20.56C66.61 20.88 66.58 21.25 66.54 21.67C66.04 21.75 65.54 21.82 65.04 21.88C64.54 21.94 64.04 21.97 63.54 21.97C63.06 21.97 62.58 21.94 62.1 21.88C61.62 21.82 61.13 21.75 60.63 21.67C60.57 21.27 60.53 20.91 60.51 20.59C60.49 20.25 60.48 19.92 60.48 19.6C60.48 19.3 60.49 18.98 60.51 18.64C60.53 18.3 60.57 17.91 60.63 17.47C61.63 17.29 62.62 17.2 63.6 17.2C64.58 17.2 65.56 17.29 66.54 17.47Z" fill="#FF5F38"/>
</svg>
