<svg width="20" height="24" viewBox="0 0 20 24" fill="none" xmlns="http://www.w3.org/2000/svg">
<path d="M5.56471 22.3192L5.96514 19.7761L5.07327 19.7553H0.814453L3.77414 0.988742C3.78317 0.932083 3.81314 0.879258 3.85678 0.841749C3.90041 0.804241 3.95639 0.783569 4.01457 0.783569H11.1956C13.5797 0.783569 15.2248 1.27966 16.0838 2.25883C16.4864 2.71818 16.743 3.19819 16.867 3.72644C16.9971 4.28073 16.9995 4.94295 16.8723 5.75064L16.8631 5.80959V6.3271L17.2659 6.55526C17.6051 6.73515 17.8744 6.9411 18.0811 7.1769C18.4258 7.56964 18.6486 8.0688 18.7427 8.66058C18.8399 9.26922 18.8077 9.99345 18.6486 10.8134C18.4648 11.7566 18.1677 12.578 17.7666 13.2502C17.3975 13.8696 16.9274 14.3832 16.3694 14.7814C15.8366 15.1596 15.2034 15.4467 14.4876 15.6305C13.7939 15.811 13.0031 15.9022 12.1357 15.9022H11.5769C11.1773 15.9022 10.789 16.0461 10.4844 16.3042C10.179 16.5676 9.97669 16.9272 9.91476 17.3208L9.87267 17.5498L9.16526 22.0321L9.13308 22.1967C9.12471 22.2489 9.11016 22.2749 9.08878 22.2926C9.06961 22.3084 9.04206 22.3192 9.01517 22.3192H5.56471Z" fill="#253B80"/>
<path d="M17.6476 5.86951C17.6262 6.00654 17.6018 6.14663 17.5742 6.29056C16.627 11.1527 13.3873 12.8324 9.24921 12.8324H7.14239C6.6364 12.8324 6.20997 13.1999 6.13108 13.699L5.05232 20.5403L4.74688 22.4794C4.69553 22.8071 4.94831 23.1027 5.27887 23.1027H9.01583C9.45835 23.1027 9.8341 22.7811 9.90374 22.3448L9.94054 22.1548L10.6442 17.6899L10.6894 17.4451C10.7581 17.0072 11.1348 16.6857 11.5773 16.6857H12.1362C15.7565 16.6857 18.5908 15.2158 19.4192 10.9621C19.7652 9.18521 19.5861 7.70153 18.6704 6.65804C18.3934 6.34339 18.0496 6.08233 17.6476 5.86951Z" fill="#179BD7"/>
<path d="M16.6568 5.47492C16.5122 5.43281 16.3628 5.39453 16.2096 5.36008C16.0558 5.32641 15.898 5.29655 15.7358 5.27052C15.1677 5.17864 14.5454 5.13501 13.8785 5.13501H8.25002C8.1114 5.13501 7.97983 5.16639 7.86193 5.22305C7.60233 5.34783 7.4095 5.5936 7.36278 5.89446L6.16524 13.4783L6.13086 13.6995C6.20975 13.2004 6.63619 12.8329 7.14218 12.8329H9.24899C13.387 12.8329 16.627 11.1524 17.574 6.29103C17.6022 6.1471 17.626 6.007 17.6474 5.86997C17.4078 5.74288 17.1482 5.63417 16.8688 5.54152C16.8 5.51856 16.7289 5.49636 16.6568 5.47492Z" fill="#222D65"/>
<path d="M7.36016 5.89418C7.40688 5.59329 7.59993 5.34755 7.85931 5.22352C7.9781 5.16686 8.109 5.13548 8.2474 5.13548H13.8761C14.5429 5.13548 15.1653 5.17911 15.7332 5.27099C15.8956 5.29702 16.0534 5.32688 16.2072 5.36055C16.3604 5.39502 16.5096 5.4333 16.6544 5.47539C16.7262 5.49683 16.7974 5.51903 16.8671 5.54124C17.1465 5.63387 17.4061 5.74335 17.6457 5.86967C17.9275 4.07286 17.6435 2.84947 16.672 1.74167C15.601 0.52212 13.6678 0 11.1943 0H4.01305C3.50772 0 3.07688 0.367459 2.99865 0.867388L0.00767481 19.8269C-0.0513866 20.202 0.237971 20.5405 0.61614 20.5405H5.04971L6.16284 13.478L7.36016 5.89418Z" fill="#253B80"/>
</svg>
