<svg width="72" height="72" viewBox="0 0 72 72" fill="none" xmlns="http://www.w3.org/2000/svg">
<path opacity="0.4" d="M32.2506 7.34996C34.3206 5.57996 37.7106 5.57996 39.8106 7.34996L44.5506 11.43C45.4506 12.21 47.1306 12.84 48.3306 12.84H53.4306C56.6106 12.84 59.2206 15.45 59.2206 18.63V23.73C59.2206 24.9 59.8506 26.61 60.6306 27.51L64.7106 32.25C66.4806 34.32 66.4806 37.71 64.7106 39.81L60.6306 44.55C59.8506 45.45 59.2206 47.13 59.2206 48.33V53.43C59.2206 56.61 56.6106 59.22 53.4306 59.22H48.3306C47.1606 59.22 45.4506 59.85 44.5506 60.63L39.8106 64.71C37.7406 66.48 34.3506 66.48 32.2506 64.71L27.5106 60.63C26.6106 59.85 24.9306 59.22 23.7306 59.22H18.5406C15.3606 59.22 12.7506 56.61 12.7506 53.43V48.3C12.7506 47.13 12.1206 45.45 11.3706 44.55L7.32063 39.78C5.58063 37.71 5.58063 34.35 7.32063 32.28L11.3706 27.51C12.1206 26.61 12.7506 24.93 12.7506 23.76V18.6C12.7506 15.42 15.3606 12.81 18.5406 12.81H23.7306C24.9006 12.81 26.6106 12.18 27.5106 11.4L32.2506 7.34996Z" fill="#30A860"/>
<path d="M32.3697 45.5101C31.7697 45.5101 31.1997 45.2701 30.7797 44.8501L23.5197 37.5901C22.6497 36.7201 22.6497 35.2801 23.5197 34.4101C24.3897 33.5401 25.8297 33.5401 26.6997 34.4101L32.3697 40.0801L45.2697 27.1801C46.1397 26.3101 47.5797 26.3101 48.4497 27.1801C49.3197 28.0501 49.3197 29.4901 48.4497 30.3601L33.9597 44.8501C33.5397 45.2701 32.9697 45.5101 32.3697 45.5101Z" fill="#30A860"/>
</svg>
