<svg width="20" height="21" viewBox="0 0 20 21" fill="none" xmlns="http://www.w3.org/2000/svg">
<path d="M13.7668 5.43616L11.1834 3.43616C10.8501 3.10282 10.1001 2.93616 9.6001 2.93616H6.43344C5.43344 2.93616 4.3501 3.68616 4.1001 4.68616L2.1001 10.7695C1.68344 11.9362 2.43344 12.9362 3.68344 12.9362H7.01677C7.51677 12.9362 7.93344 13.3528 7.8501 13.9362L7.43344 16.6028C7.26677 17.3528 7.76677 18.1862 8.51677 18.4362C9.18344 18.6862 10.0168 18.3528 10.3501 17.8528L13.7668 12.7695" stroke="#292D32" stroke-width="1.1" stroke-miterlimit="10"/>
<path d="M18.0168 5.43624V13.6029C18.0168 14.7696 17.5168 15.1862 16.3501 15.1862H15.5168C14.3501 15.1862 13.8501 14.7696 13.8501 13.6029V5.43624C13.8501 4.26957 14.3501 3.85291 15.5168 3.85291H16.3501C17.5168 3.85291 18.0168 4.26957 18.0168 5.43624Z" stroke="#292D32" stroke-width="1.1" stroke-linecap="round" stroke-linejoin="round"/>
</svg>
