<svg width="20" height="20" viewBox="0 0 20 20" fill="none" xmlns="http://www.w3.org/2000/svg">
<path d="M7.50008 18.3332H12.5001C16.6667 18.3332 18.3334 16.6665 18.3334 12.4998V7.49984C18.3334 3.33317 16.6667 1.6665 12.5001 1.6665H7.50008C3.33341 1.6665 1.66675 3.33317 1.66675 7.49984V12.4998C1.66675 16.6665 3.33341 18.3332 7.50008 18.3332Z" stroke="#292D32" stroke-linecap="round" stroke-linejoin="round"/>
<path d="M9.99992 12.9168C11.6107 12.9168 12.9166 11.611 12.9166 10.0002C12.9166 8.38933 11.6107 7.0835 9.99992 7.0835C8.38909 7.0835 7.08325 8.38933 7.08325 10.0002C7.08325 11.611 8.38909 12.9168 9.99992 12.9168Z" stroke="#292D32" stroke-linecap="round" stroke-linejoin="round"/>
<path d="M14.6968 5.83317H14.7065" stroke="#292D32" stroke-linecap="round" stroke-linejoin="round"/>
</svg>
