<svg width="20" height="21" viewBox="0 0 20 21" fill="none" xmlns="http://www.w3.org/2000/svg">
<path d="M6.2334 16.0195L8.81673 18.0195C9.15006 18.3528 9.90006 18.5195 10.4001 18.5195H13.5667C14.5667 18.5195 15.6501 17.7695 15.9001 16.7695L17.9001 10.6861C18.3167 9.51946 17.5667 8.51946 16.3167 8.51946H12.9834C12.4834 8.51946 12.0667 8.1028 12.1501 7.51946L12.5667 4.8528C12.7334 4.1028 12.2334 3.26946 11.4834 3.01946C10.8167 2.76946 9.9834 3.1028 9.65006 3.6028L6.2334 8.68613" stroke="#292D32" stroke-width="1.1" stroke-miterlimit="10"/>
<path d="M1.9834 16.0195V7.85286C1.9834 6.6862 2.4834 6.26953 3.65007 6.26953H4.4834C5.65007 6.26953 6.15007 6.6862 6.15007 7.85286V16.0195C6.15007 17.1862 5.65007 17.6029 4.4834 17.6029H3.65007C2.4834 17.6029 1.9834 17.1862 1.9834 16.0195Z" stroke="#292D32" stroke-width="1.1" stroke-linecap="round" stroke-linejoin="round"/>
</svg>
