<svg width="160" height="28" viewBox="0 0 160 28" fill="none" xmlns="http://www.w3.org/2000/svg">
<path d="M2.10005 17.35V11.05H0.300049V7.14998H2.55005L3.45005 3.57998H6.90005V7.14998H10.17V11.05H6.90005V16.3C6.90005 16.86 6.97005 17.25 7.11005 17.47C7.25005 17.67 7.57005 17.77 8.07005 17.77C8.39005 17.77 8.73005 17.76 9.09005 17.74C9.45005 17.7 9.81005 17.66 10.17 17.62L10.26 17.68V21.58C9.30005 21.86 8.03005 22 6.45005 22C4.87005 22 3.75005 21.64 3.09005 20.92C2.43005 20.2 2.10005 19.01 2.10005 17.35Z" fill="white"/>
<path d="M17.7622 21.73H12.9622V1.56998H17.7622V9.78998H17.8522C18.1322 8.88998 18.6422 8.19998 19.3822 7.71998C20.1422 7.21998 21.1322 6.96998 22.3522 6.96998C23.5122 6.96998 24.4622 7.15998 25.2022 7.53998C25.9622 7.91998 26.5222 8.58998 26.8822 9.54998C27.2622 10.49 27.4522 11.82 27.4522 13.54V21.73H22.6522L22.6222 14.47C22.6222 13.35 22.4522 12.55 22.1122 12.07C21.7722 11.59 21.1322 11.35 20.1922 11.35C19.3522 11.35 18.7422 11.57 18.3622 12.01C17.9822 12.45 17.7822 13.19 17.7622 14.23V21.73Z" fill="white"/>
<path d="M35.5161 21.73H30.7161V7.11998H34.6161L35.0061 10.12H35.0961C35.2761 8.99998 35.7061 8.19998 36.3861 7.71998C37.0661 7.21998 38.0761 6.96998 39.4161 6.96998C39.9561 6.96998 40.4461 6.99998 40.8861 7.05998C41.3261 7.09998 41.6961 7.13998 41.9961 7.17998V11.86L41.9361 11.92C41.6161 11.84 41.2461 11.77 40.8261 11.71C40.4261 11.65 39.9661 11.62 39.4461 11.62C38.7061 11.62 38.0361 11.74 37.4361 11.98C36.8561 12.22 36.3961 12.69 36.0561 13.39C35.7361 14.07 35.5761 15.09 35.5761 16.45L35.5161 21.73Z" fill="white"/>
<path d="M48.6347 1.68998C48.6947 2.40998 48.7247 3.00998 48.7247 3.48998C48.7247 3.76998 48.7147 4.05998 48.6947 4.35998C48.6947 4.63998 48.6747 4.95998 48.6347 5.31998C48.2147 5.39998 47.8047 5.45998 47.4047 5.49998C47.0047 5.53998 46.6047 5.55998 46.2047 5.55998C45.8247 5.55998 45.4347 5.53998 45.0347 5.49998C44.6547 5.45998 44.2647 5.39998 43.8647 5.31998C43.8247 4.97998 43.7947 4.66998 43.7747 4.38998C43.7547 4.08998 43.7447 3.79998 43.7447 3.51998C43.7447 3.25998 43.7547 2.97998 43.7747 2.67998C43.7947 2.37998 43.8247 2.04998 43.8647 1.68998C44.2647 1.58998 44.6647 1.52998 45.0647 1.50998C45.4847 1.46998 45.8947 1.44998 46.2947 1.44998C46.6747 1.44998 47.0547 1.46998 47.4347 1.50998C47.8347 1.52998 48.2347 1.58998 48.6347 1.68998ZM48.6347 21.73H43.8347V7.11998H48.6347V21.73Z" fill="white"/>
<path d="M50.7563 11.02V7.11998H52.8863V6.36998C52.8863 4.38998 53.3463 2.96998 54.2663 2.10998C55.1863 1.22998 56.5563 0.789978 58.3763 0.789978C59.0163 0.789978 59.6063 0.849979 60.1463 0.969978C60.6863 1.06998 61.1563 1.18998 61.5563 1.32998V4.68998L61.4663 4.74998C61.1063 4.70998 60.7463 4.67998 60.3863 4.65998C60.0263 4.61998 59.6863 4.59998 59.3663 4.59998C58.6863 4.59998 58.2063 4.72998 57.9263 4.98998C57.6663 5.22998 57.5363 5.60998 57.5363 6.12998V7.11998H61.5563V11.02H57.5363V21.73H52.8863V11.02H50.7563Z" fill="white"/>
<path d="M65.648 27.25L67.958 21.76L62.168 7.17998V7.11998H67.538C68.098 8.69998 68.618 10.29 69.098 11.89C69.598 13.49 69.998 15.13 70.298 16.81H70.358C70.658 15.15 71.038 13.52 71.498 11.92C71.978 10.32 72.518 8.71998 73.118 7.11998H78.278V7.20998L70.568 27.31H65.648V27.25Z" fill="white"/>
<path d="M88.4154 17.59C89.9754 18.03 91.7054 18.25 93.6054 18.25C94.5254 18.25 95.2154 18.22 95.6754 18.16C96.1354 18.1 96.4454 18 96.6054 17.86C96.7654 17.72 96.8454 17.53 96.8454 17.29C96.8454 16.95 96.7154 16.74 96.4554 16.66C96.2154 16.58 95.7254 16.47 94.9854 16.33L92.6154 15.88C91.0954 15.58 89.9954 15.11 89.3154 14.47C88.6554 13.81 88.3254 12.83 88.3254 11.53C88.3254 9.76998 88.8454 8.56998 89.8854 7.92998C90.9454 7.28998 92.6254 6.96998 94.9254 6.96998C96.3054 6.96998 97.5154 7.04998 98.5554 7.20998C99.6154 7.34998 100.495 7.52998 101.195 7.74998L101.135 11.38L101.045 11.47C99.4254 10.95 97.6554 10.69 95.7354 10.69C94.7954 10.69 94.1354 10.76 93.7554 10.9C93.3954 11.02 93.2154 11.27 93.2154 11.65C93.2154 11.85 93.2654 12.01 93.3654 12.13C93.4854 12.25 93.7454 12.37 94.1454 12.49C94.5454 12.59 95.1754 12.72 96.0354 12.88L98.2254 13.3C99.4454 13.56 100.345 13.99 100.925 14.59C101.505 15.19 101.795 16.14 101.795 17.44C101.795 18.58 101.585 19.49 101.165 20.17C100.745 20.83 100.035 21.3 99.0354 21.58C98.0554 21.86 96.6954 22 94.9554 22C93.6354 22 92.4154 21.94 91.2954 21.82C90.1954 21.68 89.2054 21.52 88.3254 21.34V17.65L88.4154 17.59Z" fill="white"/>
<path d="M104.639 17.35V11.05H102.839V7.14998H105.089L105.989 3.57998H109.439V7.14998H112.709V11.05H109.439V16.3C109.439 16.86 109.509 17.25 109.649 17.47C109.789 17.67 110.109 17.77 110.609 17.77C110.929 17.77 111.269 17.76 111.629 17.74C111.989 17.7 112.349 17.66 112.709 17.62L112.799 17.68V21.58C111.839 21.86 110.569 22 108.989 22C107.409 22 106.289 21.64 105.629 20.92C104.969 20.2 104.639 19.01 104.639 17.35Z" fill="white"/>
<path d="M114.451 14.53C114.451 11.85 115.021 9.91998 116.161 8.73998C117.301 7.55998 119.231 6.96998 121.951 6.96998C123.771 6.96998 125.231 7.22998 126.331 7.74998C127.431 8.26998 128.221 9.08998 128.701 10.21C129.201 11.31 129.451 12.75 129.451 14.53C129.451 16.29 129.201 17.72 128.701 18.82C128.221 19.92 127.431 20.73 126.331 21.25C125.231 21.75 123.771 22 121.951 22C119.231 22 117.301 21.42 116.161 20.26C115.021 19.08 114.451 17.17 114.451 14.53ZM121.951 17.89C123.111 17.89 123.891 17.64 124.291 17.14C124.711 16.62 124.921 15.72 124.921 14.44C124.921 13.22 124.711 12.35 124.291 11.83C123.891 11.29 123.111 11.02 121.951 11.02C120.831 11.02 120.051 11.29 119.611 11.83C119.191 12.35 118.981 13.22 118.981 14.44C118.981 15.72 119.191 16.62 119.611 17.14C120.051 17.64 120.831 17.89 121.951 17.89Z" fill="white"/>
<path d="M136.795 21.73H131.995V7.11998H135.895L136.285 10.12H136.375C136.555 8.99998 136.985 8.19998 137.665 7.71998C138.345 7.21998 139.355 6.96998 140.695 6.96998C141.235 6.96998 141.725 6.99998 142.165 7.05998C142.605 7.09998 142.975 7.13998 143.275 7.17998V11.86L143.215 11.92C142.895 11.84 142.525 11.77 142.105 11.71C141.705 11.65 141.245 11.62 140.725 11.62C139.985 11.62 139.315 11.74 138.715 11.98C138.135 12.22 137.675 12.69 137.335 13.39C137.015 14.07 136.855 15.09 136.855 16.45L136.795 21.73Z" fill="white"/>
<path d="M158.254 21.25C157.694 21.45 156.914 21.63 155.914 21.79C154.934 21.93 153.764 22 152.404 22C150.684 22 149.214 21.78 147.994 21.34C146.794 20.88 145.884 20.11 145.264 19.03C144.644 17.93 144.334 16.41 144.334 14.47C144.334 11.83 144.934 9.91998 146.134 8.73998C147.354 7.55998 149.234 6.96998 151.774 6.96998C153.594 6.96998 155.024 7.22998 156.064 7.74998C157.124 8.26998 157.874 9.00998 158.314 9.96998C158.774 10.91 159.004 12.03 159.004 13.33C159.004 13.71 158.984 14.12 158.944 14.56C158.924 15 158.874 15.43 158.794 15.85L158.674 15.97H148.804C148.944 16.85 149.354 17.43 150.034 17.71C150.734 17.99 151.864 18.13 153.424 18.13C154.464 18.13 155.324 18.11 156.004 18.07C156.704 18.01 157.414 17.93 158.134 17.83L158.254 17.92V21.25ZM154.834 12.82C154.834 12.34 154.754 11.93 154.594 11.59C154.454 11.23 154.164 10.96 153.724 10.78C153.284 10.58 152.634 10.48 151.774 10.48C150.514 10.48 149.684 10.7 149.284 11.14C148.904 11.56 148.714 12.12 148.714 12.82H154.834Z" fill="white"/>
<path d="M84.06 17.47C84.1 17.91 84.13 18.29 84.15 18.61C84.17 18.91 84.18 19.23 84.18 19.57C84.18 19.89 84.17 20.22 84.15 20.56C84.13 20.88 84.1 21.25 84.06 21.67C83.56 21.75 83.06 21.82 82.56 21.88C82.06 21.94 81.56 21.97 81.06 21.97C80.58 21.97 80.1 21.94 79.62 21.88C79.14 21.82 78.65 21.75 78.15 21.67C78.09 21.27 78.05 20.91 78.03 20.59C78.01 20.25 78 19.92 78 19.6C78 19.3 78.01 18.98 78.03 18.64C78.05 18.3 78.09 17.91 78.15 17.47C79.15 17.29 80.14 17.2 81.12 17.2C82.1 17.2 83.08 17.29 84.06 17.47Z" fill="#FF5F38"/>
</svg>
