<svg width="14" height="14" viewBox="0 0 14 14" fill="none" xmlns="http://www.w3.org/2000/svg">
<path d="M6.99967 0.333328C3.32634 0.333328 0.333008 3.32666 0.333008 6.99999C0.333008 10.6733 3.32634 13.6667 6.99967 13.6667C10.673 13.6667 13.6663 10.6733 13.6663 6.99999C13.6663 3.32666 10.673 0.333328 6.99967 0.333328ZM9.23967 8.53333C9.43301 8.72666 9.43301 9.04666 9.23967 9.23999C9.13967 9.33999 9.01301 9.38666 8.88634 9.38666C8.75967 9.38666 8.63301 9.33999 8.53301 9.23999L6.99967 7.70666L5.46634 9.23999C5.36634 9.33999 5.23967 9.38666 5.11301 9.38666C4.98634 9.38666 4.85967 9.33999 4.75967 9.23999C4.56634 9.04666 4.56634 8.72666 4.75967 8.53333L6.29301 6.99999L4.75967 5.46666C4.56634 5.27333 4.56634 4.95333 4.75967 4.75999C4.95301 4.56666 5.27301 4.56666 5.46634 4.75999L6.99967 6.29333L8.53301 4.75999C8.72634 4.56666 9.04634 4.56666 9.23967 4.75999C9.43301 4.95333 9.43301 5.27333 9.23967 5.46666L7.70634 6.99999L9.23967 8.53333Z" fill="#CFCFCF"/>
</svg>
