<svg width="20" height="21" viewBox="0 0 20 21" fill="none" xmlns="http://www.w3.org/2000/svg">
<path d="M14.1333 5.86963C15.8 7.02796 16.95 8.86963 17.1833 10.9946" stroke="#292D32" stroke-linecap="round" stroke-linejoin="round"/>
<path d="M2.90845 11.0363C3.12511 8.91959 4.25845 7.07792 5.90845 5.91125" stroke="#292D32" stroke-linecap="round" stroke-linejoin="round"/>
<path d="M6.82495 18.1779C7.79162 18.6695 8.89162 18.9445 10.05 18.9445C11.1666 18.9445 12.2166 18.6945 13.1583 18.2362" stroke="#292D32" stroke-linecap="round" stroke-linejoin="round"/>
<path d="M10.0501 7.14456C11.3295 7.14456 12.3667 6.10736 12.3667 4.8279C12.3667 3.54844 11.3295 2.51123 10.0501 2.51123C8.77061 2.51123 7.7334 3.54844 7.7334 4.8279C7.7334 6.10736 8.77061 7.14456 10.0501 7.14456Z" stroke="#292D32" stroke-linecap="round" stroke-linejoin="round"/>
<path d="M4.02492 17.3279C5.30438 17.3279 6.34159 16.2907 6.34159 15.0112C6.34159 13.7318 5.30438 12.6946 4.02492 12.6946C2.74546 12.6946 1.70825 13.7318 1.70825 15.0112C1.70825 16.2907 2.74546 17.3279 4.02492 17.3279Z" stroke="#292D32" stroke-linecap="round" stroke-linejoin="round"/>
<path d="M15.9751 17.3279C17.2546 17.3279 18.2918 16.2907 18.2918 15.0112C18.2918 13.7318 17.2546 12.6946 15.9751 12.6946C14.6957 12.6946 13.6584 13.7318 13.6584 15.0112C13.6584 16.2907 14.6957 17.3279 15.9751 17.3279Z" stroke="#292D32" stroke-linecap="round" stroke-linejoin="round"/>
</svg>
