<svg width="18" height="19" viewBox="0 0 18 19" fill="none" xmlns="http://www.w3.org/2000/svg">
<path d="M15.75 5.21289C13.2525 4.96539 10.74 4.83789 8.235 4.83789C6.75 4.83789 5.265 4.91289 3.78 5.06289L2.25 5.21289" stroke="#292D32" stroke-linecap="round" stroke-linejoin="round"/>
<path d="M6.375 4.45541L6.54 3.47291C6.66 2.76041 6.75 2.22791 8.0175 2.22791H9.9825C11.25 2.22791 11.3475 2.79041 11.46 3.48041L11.625 4.45541" stroke="#292D32" stroke-linecap="round" stroke-linejoin="round"/>
<path d="M14.1383 7.58289L13.6508 15.1354C13.5683 16.3129 13.5008 17.2279 11.4083 17.2279H6.59328C4.50078 17.2279 4.43328 16.3129 4.35078 15.1354L3.86328 7.58289" stroke="#292D32" stroke-linecap="round" stroke-linejoin="round"/>
<path d="M7.74805 13.1029H10.2455" stroke="#292D32" stroke-linecap="round" stroke-linejoin="round"/>
<path d="M7.125 10.1029H10.875" stroke="#292D32" stroke-linecap="round" stroke-linejoin="round"/>
</svg>
